<svg id="Слой_1" xmlns="http://www.w3.org/2000/svg" viewBox="0 0 147 39"><style>.st0{fill:#ffdc4e}.st1{fill:#706f6f}</style><path class="st0" d="M22.7 27.9L16 31.4l1.3-7.4-5.4-5.3 7.5-1.1 3.3-6.8 3.3 6.8 7.5 1.1-5.4 5.3 1.3 7.4z"/><path class="st1" d="M22.7 11.4l3.2 6.5 7.1 1-5.2 5L29 31l-6.4-3.4-6.3 3.4 1.2-7.1-5.1-5 7.1-1 3.2-6.5m0-1.2l-.4.9-3.1 6.2-6.9 1-1 .1.7.7 5 4.8-1.2 6.8-.2 1 .9-.5 6.1-3.2 6.1 3.2.9.5-.2-1-1-6.7 5-4.8.7-.7-1-.1-6.9-1-3.1-6.2-.4-1z"/><path class="st0" d="M48.7 27.9L42 31.4l1.3-7.4-5.5-5.3 7.5-1.1 3.4-6.8 3.3 6.8 7.5 1.1-5.4 5.3 1.3 7.4z"/><path class="st1" d="M48.7 11.4l3.2 6.5 7.1 1-5.2 5L55 31l-6.4-3.4-6.3 3.4 1.2-7.1-5.1-5 7.1-1 3.2-6.5m0-1.2l-.4.9-3.1 6.2-6.9 1-1 .1.7.7 5 4.8-1.2 6.8-.2 1 .9-.5 6.1-3.2 6.1 3.2.9.5-.2-1-1-6.7 5-4.8.7-.7-1-.1-6.9-1-3.1-6.2-.4-1z"/><path class="st0" d="M74.7 27.9L68 31.4l1.2-7.4-5.4-5.3 7.5-1.1 3.4-6.8 3.3 6.8 7.5 1.1-5.4 5.3 1.3 7.4z"/><path class="st1" d="M74.7 11.4l3.2 6.5 7.1 1-5.2 5L81 31l-6.4-3.4-6.3 3.4 1.2-7.1-5.1-5 7.1-1 3.2-6.5m0-1.2l-.4.9-3.1 6.2-6.9 1-1 .1.7.7 5 4.8-1.2 6.8-.2 1 .9-.5 6.1-3.2 6.1 3.2.9.5-.2-1-1.1-6.7 5-4.8.7-.7-1-.1-6.9-1-3.1-6.2-.3-1z"/><path class="st0" d="M100.6 27.9l-6.7 3.5 1.3-7.4-5.4-5.3 7.5-1.1 3.3-6.8 3.4 6.8 7.5 1.1-5.4 5.3 1.3 7.4z"/><path class="st1" d="M100.6 11.4l3.2 6.5 7.1 1-5.2 5L107 31l-6.4-3.4-6.3 3.4 1.2-7.1-5.1-5 7.1-1 3.1-6.5m0-1.2l-.4.9-3.1 6.2-6.9 1-1 .1.7.7 5 4.8-1.2 6.8-.2 1 .9-.5 6.1-3.2 6.1 3.2.9.5-.2-1-1.2-6.8 5-4.8.7-.7-1-.1-6.9-1-3.1-6.2-.2-.9z"/><path class="st0" d="M126.6 27.9l-6.7 3.5 1.3-7.4-5.4-5.3 7.5-1.1 3.3-6.8 3.4 6.8 7.5 1.1L132 24l1.3 7.4z"/><path class="st1" d="M126.6 11.4l3.2 6.5 7.1 1-5.2 5L133 31l-6.4-3.4-6.4 3.4 1.2-7.1-5.1-5 7.1-1 3.2-6.5m0-1.2l-.4.9-3.1 6.2-6.9 1-1 .1.7.7 5 4.8-1.2 6.8-.2 1 .9-.5 6.1-3.2 6.1 3.2.9.5-.2-1-1.2-6.8 5-4.8.7-.7-1-.1-6.9-1-3.1-6.2-.2-.9z"/></svg>