<svg id="Слой_2" xmlns="http://www.w3.org/2000/svg" viewBox="0 0 119 119"><style>.st0{fill:#ffcd01}</style><path class="st0" d="M63.8 113.8L59 96.9v-.4.4l-4.8 16.9h9.6zm19.7-81l-7.2-18.2-18.2 7.2c-1.4.5-2.9.1-3.8-1.1L46.7 10l-8 18.4 53.1 23 8-18.4-13 1.7c-1.3.3-2.8-.5-3.3-1.9z"/><path d="M106.4 26.2c-.5-.2-1.1-.3-1.7-.2l-16.1 2.1-7.5-18.8c-.7-1.7-2.5-2.5-4.2-1.8l-18.8 7.4-9.4-13.2c-1-1.4-3-1.8-4.5-.7-.5.3-.9.8-1.1 1.3L31.6 28.8c-.7 1.6 0 3.5 1.7 4.2l3 1.3-.7 1.7c-6.4 14.7.4 31.7 15.1 38.1 14.7 6.4 31.7-.4 38.1-15.1l.7-1.7 3 1.3c1.6.7 3.5 0 4.2-1.7L108 30.4c.8-1.6 0-3.5-1.6-4.2zM82.7 56.6c-5 11.4-18.2 16.6-29.6 11.7S36.4 50 41.4 38.6l.7-1.7 41.3 17.9-.7 1.8zm9.2-5.1l-53.1-23 8-18.4 7.6 10.6c.9 1.2 2.4 1.7 3.8 1.1l18.2-7.2 7.2 18.2c.5 1.4 2 2.2 3.4 2l13-1.7-8.1 18.4z"/><path class="st0" d="M63.4 86.8h-8.9l4.1 8.2c.2.4.3.9.3 1.4 0-.5.1-1 .3-1.4l4.2-8.2z"/><path d="M71.8 80.4H46.1c-19.5 0-35.4 15.9-35.4 35.4 0 1.8 1.4 3.2 3.2 3.2h90c1.8 0 3.2-1.4 3.2-3.2h.1c0-19.6-15.8-35.4-35.4-35.4zm-9.4 6.4L59.3 95c-.2.5-.3 1-.3 1.5v.4l4.6 16.1h-9.2L59 96.9v-.4c0-.5-.1-1-.3-1.4l-3.1-8.2h6.8zm-16.3 0h2.2L52.4 97l-4.5 15.9-30.8-.1c0-12.5 13-26 29-26zM70 113l-4.5-16 4.1-10.2h2.2c16 0 29 13.8 29 26.3L70 113z"/></svg>