<svg id="Слой_2" xmlns="http://www.w3.org/2000/svg" viewBox="0 0 256.7 256.7"><style>.st0{fill:#ffcd01}.st1{fill:#fff}</style><path d="M130.8.3c4.8 1 9.4 2.6 13.1 6.1 6.9 6.6 9.5 14.6 6.8 23.8-2.7 9.5-9.3 15.1-19.1 16.7-13.5 2.2-26-8.1-26.8-22.3-.6-11.1 8.2-22.1 19.3-23.8.6-.1 1.1-.3 1.6-.4 1.8-.1 3.5-.1 5.1-.1zm-2.5 8.4c-8.5.1-15.2 6.9-15.1 15.3.1 8.4 6.8 15 15.2 14.9 8.4 0 15-6.7 15.1-15.1 0-8.4-6.8-15.2-15.2-15.1zm-2.5 247.6c-4.7-1-9.2-2.5-12.9-5.9-6.6-6.1-9.3-13.6-7.5-22.3 1.7-8.5 6.9-14.6 15.2-17.3 13.6-4.5 26.7 2.7 30.5 16.6 3.4 12.6-5.6 26.4-18.6 28.5-.6.1-1.1.3-1.7.4h-5zm-12.6-23.5c0 8.5 6.8 15.3 15.2 15.2 8.4 0 15-6.7 15.1-15.1 0-8.4-6.6-15.1-15-15.2-8.5-.1-15.3 6.6-15.3 15.1zm61.6-104.4c-.1 25.5-21 46.4-46.5 46.4-25.6 0-46.7-21.2-46.5-46.7.2-25.6 21.1-46.4 46.6-46.3 25.6.2 46.5 21.1 46.4 46.6zm-20.6 27.7c11.4-9.6 15.4-27.3 9.4-42.1-5.8-14.3-20.5-24.9-38.6-23.7-15.2 1-29.3 12.5-33.6 27.9-4.2 15.1 1.9 30.8 10.8 37.6.1 0 .2-.1.2-.1.2-.3.4-.5.5-.8 3.2-6 8.2-9.4 15-9.6 6.7-.2 13.5-.1 20.2 0 1.3 0 2.7.2 3.9.5 5.9 1.3 9.7 4.9 12.2 10.3zm-26.8 10.3c6.8.1 12.5-1.4 18-4 1.6-.8 1.8-1.7 1.2-3.1-1.6-3.6-4.3-5.8-8.3-5.9-6.7-.2-13.3-.2-20 0-3.9.1-6.7 2.3-8.3 5.9-.6 1.4-.5 2.3 1.2 3.1 5.4 2.6 10.9 4.1 16.2 4zm91.5-66.9c-13.1.1-23.4-10.3-23.5-23.7-.1-12.4 10.7-23.1 23.4-23.2 13.2 0 23.5 10.5 23.5 24 0 12.4-10.7 22.8-23.4 22.9zm-15.2-23.4c.1 8.5 6.8 15.2 15.2 15.2 8.3-.1 15.1-7 15-15.2-.1-8.7-6.8-15.4-15.4-15.3-8.1.2-14.8 7.1-14.8 15.3zm-166-23.5c12.6-.1 23.4 10.5 23.5 22.8.1 13.5-10.1 24-23.4 24.1-12.6.1-23.4-10.4-23.5-22.8 0-13.4 10.2-24 23.4-24.1zm15.2 23.5c.1-8.3-6.6-15.2-14.9-15.2-8.5-.1-15.3 6.7-15.3 15.3 0 8.2 6.8 15.1 15.1 15.1 8.4 0 15.1-6.7 15.1-15.2zM218.5 204c-13.1-.3-23.4-11-23.1-23.9.3-12.9 11-23.2 23.8-22.9 13 .3 23.4 11 23.1 23.9-.4 12.9-11 23.2-23.8 22.9zm-14.8-23.4c-.1 8.3 6.7 15.1 14.9 15.2 8.5.1 15.2-6.6 15.3-15.3.1-8.2-6.9-15.1-15.1-15.1-8.4 0-15 6.6-15.1 15.2zM38.1 157.2c13.3.3 23.4 10.9 23.2 24.3-.3 12.3-11.4 22.8-23.8 22.5-13.4-.3-23.4-10.9-23.1-24.3.2-12.3 11.2-22.8 23.7-22.5zm14.8 23.4c-.1-8.5-6.8-15.2-15.2-15.2-8.3 0-15.1 6.9-15 15.1 0 8.7 6.8 15.4 15.3 15.3 8.3-.1 15-7 14.9-15.2zm142-86c-6.4 3.7-12.6 7.3-19.1 11-1.4-2.4-2.7-4.7-4.1-7.1 6.4-3.7 12.6-7.3 19-11 1.5 2.4 2.8 4.7 4.2 7.1zm-133.2.1c1.4-2.5 2.7-4.7 4.1-7.2 6.4 3.7 12.6 7.3 19 11-1.4 2.4-2.7 4.6-4.1 7.2-6.3-3.7-12.5-7.3-19-11zm4.2 74.5c-1.4-2.4-2.7-4.7-4.1-7.1 6.4-3.7 12.6-7.3 19.1-11 1.4 2.4 2.7 4.7 4.1 7.1-6.4 3.6-12.7 7.2-19.1 11zm105.8-11.1c1.4-2.4 2.7-4.7 4.1-7.1 6.5 3.7 12.7 7.3 19.1 11-1.4 2.5-2.7 4.7-4.1 7.2-6.5-3.8-12.7-7.4-19.1-11.1zm-47.3-82.4V54h7.9v21.7h-7.9zm7.9 127h-7.9V181h7.9v21.7zM60.9 54c-1.9-2.1-3.6-4-5.5-6.1 2.3-1.9 4.6-3.8 7.1-5.9 1.7 2.2 3.3 4.3 5 6.5-2.3 1.8-4.4 3.6-6.6 5.5zm128.3-5.5c1.7-2.2 3.2-4.2 5-6.6 2.4 2 4.6 3.8 7.1 5.9-1.8 2-3.6 4-5.5 6.1-2.2-1.8-4.3-3.5-6.6-5.4zM62.4 214.7c-2.4-2-4.7-3.9-7.1-5.9 1.9-2.1 3.7-4 5.5-6.1 2.2 1.8 4.3 3.6 6.6 5.4-1.6 2.2-3.2 4.3-5 6.6zM95.1 24.9c.8 2.7 1.6 5.1 2.5 7.9-2.7 1-5.2 1.9-8 3-1.1-2.6-2.1-5-3.2-7.6 3-1.2 5.8-2.2 8.7-3.3zm106.3 183.9c-2.4 2-4.7 3.9-7.1 5.9-1.8-2.3-3.3-4.4-5-6.6 2.2-1.8 4.3-3.6 6.6-5.4 1.8 2 3.5 4 5.5 6.1zm-22.8 15.9c-1.4-2.6-2.6-4.9-3.8-7.3 2.4-1.4 4.8-2.8 7.4-4.3 1.4 2.3 2.8 4.5 4.4 7-2.6 1.5-5.2 3-8 4.6zm-8.4 3.9c-3 1.1-5.8 2.1-8.7 3.2-.9-2.7-1.6-5.1-2.5-7.8 2.6-1 5.2-1.9 8-3 1.1 2.5 2.1 4.9 3.2 7.6zm-95.7-185c-1.5-2.3-2.9-4.5-4.4-7 2.6-1.5 5.2-3 8-4.6 1.3 2.5 2.6 4.8 3.9 7.3-2.6 1.4-4.9 2.7-7.5 4.3zM29.9 148.1c-2.8.6-5.3 1.1-8.1 1.6-.5-3-.9-5.9-1.4-9.1 2.8-.3 5.4-.6 8.2-.9.4 2.8.8 5.4 1.3 8.4zm-7.4-44.4c2.7.6 5.3 1.2 8 1.9-.5 2.8-1 5.5-1.5 8.4-2.8-.4-5.3-.8-8.1-1.2.5-3.1 1-6 1.6-9.1zm212.4 3.3c.5 3.1.9 6 1.4 9.1-2.9.3-5.5.6-8.2.9-.4-2.9-.8-5.5-1.3-8.4 2.7-.6 5.3-1.1 8.1-1.6zm1.9 27.6c-2.9-.2-5.5-.3-8.2-.5 0-2.8.1-5.5.1-8.6 2.7-.1 5.3-.1 8.2-.2 0 3.2 0 6.1-.1 9.3zm-.9 9.2c-.6 3.2-1.1 6.1-1.7 9.1-2.7-.6-5.2-1.2-8-1.9.5-2.8 1-5.4 1.5-8.4 2.7.5 5.3.8 8.2 1.2zM28 131.1c-2.8.1-5.3.1-8.2.2 0-3.1.1-6 .1-9.2 2.8.1 5.4.3 8.2.4-.1 2.8-.1 5.5-.1 8.6zm154.2-87.5c-2.6-1.5-4.9-2.8-7.4-4.3 1.3-2.4 2.5-4.7 3.8-7.3 2.7 1.6 5.3 3 8 4.6-1.5 2.4-2.9 4.6-4.4 7zm-12-15.5c-1.1 2.5-2.1 4.9-3.2 7.6-2.6-1-5.2-1.9-8-2.9.8-2.6 1.6-5.1 2.5-7.9 2.9 1 5.7 2.1 8.7 3.2zM70 220c1.6-2.4 3-4.7 4.4-6.9 2.6 1.5 4.9 2.8 7.4 4.3-1.3 2.4-2.5 4.8-3.8 7.3-2.7-1.6-5.2-3.1-8-4.7zm25.2 11.8c-2.9-1.1-5.6-2.1-8.7-3.2 1.1-2.5 2.1-4.9 3.2-7.6 2.7 1 5.2 1.9 8 2.9-.9 2.7-1.7 5.2-2.5 7.9z"/><path class="st0" d="M128.3 8.7c8.5-.1 15.2 6.7 15.2 15.2 0 8.4-6.6 15-15.1 15.1-8.4 0-15.1-6.5-15.2-14.9-.1-8.5 6.6-15.4 15.1-15.4z"/><path class="st1" d="M113.2 232.8c0-8.5 6.8-15.2 15.3-15.1 8.4.1 15 6.8 15 15.2 0 8.4-6.7 15.1-15.1 15.1-8.4.1-15.2-6.8-15.2-15.2z"/><path class="st0" d="M154.2 156.1c-2.5-5.4-6.4-8.9-12-10.3-1.3-.3-2.6-.5-3.9-.5-6.7 0-13.5-.1-20.2 0-6.8.2-11.8 3.6-15 9.6-.2.3-.3.6-.5.8 0 .1-.1.1-.2.1-8.9-6.9-15-22.6-10.8-37.6 4.3-15.4 18.4-26.8 33.6-27.9 18.1-1.2 32.8 9.4 38.6 23.7 5.8 14.7 1.9 32.5-9.6 42.1zm-7.8-35.3c0-10-8.1-18.1-18.2-18-10 .1-18.1 8.2-18 18.2.1 9.9 8.1 17.9 18 17.9 10.1 0 18.2-8.1 18.2-18.1z"/><path class="st1" d="M127.4 166.4c-5.3 0-10.8-1.4-16.2-4-1.6-.8-1.8-1.7-1.2-3.1 1.6-3.6 4.3-5.8 8.3-5.9 6.7-.2 13.3-.2 20 0 3.9.1 6.7 2.3 8.3 5.9.6 1.5.5 2.3-1.2 3.1-5.5 2.7-11.2 4.1-18 4zm76.3-90.3c-.1-8.3 6.6-15.2 14.9-15.3 8.5-.1 15.3 6.6 15.4 15.3.1 8.2-6.7 15.1-15 15.2-8.5.1-15.2-6.6-15.3-15.2zm-150.8 0c-.1 8.6-6.8 15.3-15.2 15.2-8.3 0-15.1-6.9-15.1-15.1 0-8.7 6.8-15.4 15.3-15.3 8.4 0 15.1 6.9 15 15.2z"/><path class="st0" d="M203.7 180.6c.1-8.6 6.7-15.2 15.2-15.2 8.2 0 15.1 6.9 15.1 15.1-.1 8.7-6.8 15.4-15.3 15.3-8.3-.1-15-6.9-15-15.2zm-150.8 0c.1 8.3-6.7 15.2-14.9 15.3-8.5.1-15.3-6.6-15.3-15.3 0-8.2 6.8-15.1 15-15.1 8.5-.2 15.2 6.5 15.2 15.1z"/><path d="M146.4 120.8c0 10-8.1 18.1-18.1 18.1-9.9 0-17.9-8-18-17.9-.1-10 7.9-18.2 18-18.2 10-.1 18.1 7.9 18.1 18zm-8.2.1c.1-5.3-4.4-9.9-9.7-10-5.3-.1-9.9 4.4-10 9.8-.1 5.3 4.4 9.9 9.8 10 5.2.1 9.8-4.4 9.9-9.8z"/><path class="st1" d="M138.2 120.9c-.1 5.4-4.6 9.8-10 9.7-5.4-.1-9.9-4.7-9.8-10 .1-5.4 4.7-9.8 10-9.8 5.4.2 9.9 4.8 9.8 10.1z"/></svg>