<svg id="Слой_2" xmlns="http://www.w3.org/2000/svg" viewBox="0 0 202.5 202.5"><style>.st0{fill:#ffcd01}</style><path class="st0" d="M20.6 161.8h101.1V196H20.6zm0-154.5h101.1v13.5H20.6z"/><path d="M113.6.5H28.7c-8.2 0-14.8 6.7-14.8 14.8v172.5c0 8.2 6.7 14.8 14.8 14.8h84.9c8.2 0 14.8-6.7 14.8-14.8V15.4c0-8.2-6.7-14.9-14.8-14.9zm-93 27h101.1v128H20.6v-128zm8.1-20.2h84.9c4.5 0 8.1 3.6 8.1 8.1v5.4H20.6v-5.4c0-4.5 3.6-8.1 8.1-8.1zM113.6 196H28.7c-4.5 0-8.1-3.6-8.1-8.1v-25.6h101.1v25.6c0 4.4-3.7 8.1-8.1 8.1z"/><path d="M57.6 17.4h13.5c1.9 0 3.4-1.5 3.4-3.4s-1.5-3.4-3.4-3.4H57.6c-1.9 0-3.4 1.5-3.4 3.4s1.6 3.4 3.4 3.4zm23.6 0h3.4c1.9 0 3.4-1.5 3.4-3.4s-1.5-3.4-3.4-3.4h-3.4c-1.9 0-3.4 1.5-3.4 3.4s1.6 3.4 3.4 3.4z"/><circle cx="71.1" cy="179.1" r="8.3"/><path d="M181.3 118.9V60.6c0-3.6-2.8-6.4-6.5-6.4h-55.3c-3.7 0-6.6 2.8-6.6 6.4v49.5c.2 7.5-1.2 10.5-5.7 15.6h67.5c3.7 0 6.6-3.1 6.6-6.8z" fill="#fff"/><path d="M174.9 46.9h-55.3c-7.7 0-13.9 6.1-13.9 13.8v49.6c.1 5.9-.5 7-4.7 11.5-.3.4-.7.9-1.1 1.3L91 133h83.9c7.7 0 13.8-6.4 13.8-14.1V60.6c0-7.7-6.1-13.7-13.8-13.7zm6.4 72c0 3.8-2.9 6.8-6.5 6.8h-67.5c4.5-5.1 5.8-8.1 5.7-15.6V60.6c0-3.6 2.9-6.4 6.6-6.4h55.3c3.6 0 6.5 2.8 6.5 6.4v58.3z"/><path d="M133.4 85.1H130v-3.4c0-1.9-1.5-3.4-3.4-3.4s-3.4 1.5-3.4 3.4v3.4h-3.4c-1.9 0-3.4 1.5-3.4 3.4s1.5 3.4 3.4 3.4h3.4v3.4c0 1.9 1.5 3.4 3.4 3.4s3.4-1.5 3.4-3.4v-3.4h3.4c1.9 0 3.4-1.5 3.4-3.4-.1-1.9-1.6-3.4-3.4-3.4zm-19.5-34.4h5.4V34.4h-14.9v5.4h9.5zm0 80v11h-9.5v5.4h14.9v-16.4zm-80.5-80V39.8h9.5v-5.4H28.1v16.3zm0 80h-5.3v16.4h14.8v-5.4h-9.5z"/><path class="st0" d="M143.7 99.1h30.1v7.9h-30.1z"/><circle class="st0" cx="158.7" cy="80.2" r="7.5"/><path d="M163.9 93.6h-5c7.1-.1 12.9-5.9 12.9-13.1v-.3c0-7.2-5.8-13-13-13.1h-.1c-3.5 0-6.7 1.3-9.2 3.8-2.5 2.5-3.9 5.7-3.9 9.3v.3c0 7.1 5.8 13 12.9 13.1h-5c-8.6 0-15.6 7-15.6 15.6v.2c0 1.5 1.2 2.8 2.8 2.8h36c1.5 0 2.8-1.2 2.8-2.8v-.2c0-8.6-7-15.6-15.6-15.6zm-5.2-20.9s.1 0 0 0c4.2 0 7.5 3.4 7.5 7.5v.4c0 2-.8 3.9-2.2 5.3-1.4 1.4-3.3 2.2-5.3 2.2-4.1 0-7.5-3.4-7.5-7.5v-.4c.1-4.2 3.4-7.5 7.5-7.5zm11.6 7.5zM143.7 107c.8-4.4 4.9-7.9 9.9-7.9h10.3c5 0 9.2 3.4 9.9 7.9h-30.1z"/></svg>