<svg xmlns="http://www.w3.org/2000/svg" viewBox="0 0 236.5 236.5"><path d="M104.6 115.2s0 .1 0 0c6 1.9 7.8 7.7 7.6 12.7-.3 7.3-4.3 11.4-11.9 12.4-1.5.2-3 .3-4.5.3H70.3c-2.6-.1-3.4-.9-3.4-3.5V95.3c.1-1.6.8-2.5 2.4-2.8.7-.2 1.3-.2 2-.2 7.8 0 15.7-.1 23.5.1 2.7.1 5.4.7 8 1.4 4.1 1.1 6.2 4.1 6.9 8.2.6 3.9.2 7.7-2.5 10.9-.7.9-1.7 1.5-2.6 2.3zm-27.7 17.7c.2.1.3.1.3.1 6.4 0 12.8.1 19.1-.1 3.9-.1 5.6-2 5.7-5.9v-1.5c-.2-3.5-1.7-5.4-5.2-5.5-5.1-.2-10.3-.1-15.4-.1-.5 0-1.1.1-1.6.3-1.9.6-2.8 1.6-2.9 3.6-.1 2.9 0 6 0 9.1zm0-20.4H93c.8 0 1.7-.1 2.5-.2 2.5-.4 3.9-1.8 4.2-4.3.1-1.2.1-2.4 0-3.5-.3-2.4-1.7-3.8-4-4.2-.9-.1-1.7-.2-2.6-.2h-15c-.4 0-.8 0-1.2.1v12.3zm148.2 8.8c1.6 2.7 3.1 5.3 4.6 7.9 2 3.3 3.9 6.7 5.9 10 .7 1.2.6 1.4-.8 1.4h-8c-1.1 0-1.7-.4-2.2-1.3-2.9-5.4-6-10.7-8.9-16.1-.4-.8-.9-1-1.8-1-2.8.1-5.6 0-8.4 0-.7 0-1.3.1-2 .2-2.4.5-3.5 1.7-3.5 4.2v14h-8.4c-1.1 0-1.6-.5-1.6-1.6V96.6c0-3.2 1-4.3 4.1-4.3h24.4c3.1 0 6.1.7 9 1.9 3.5 1.5 5.7 4.1 6.6 7.7.9 3.5.9 7.1 0 10.6-1 4.2-3.8 6.8-7.8 8.3-.3.2-.7.3-1.2.5zm-25-6.6c6.3 0 12.5.1 18.7-.1 4-.1 5.6-2 5.8-6v-2.5c-.2-3.7-1.9-5.7-5.7-5.8-6.2-.2-12.4-.1-18.5-.1-.1 0-.1.1-.3.1v14.4zm-59 18.2h31.7c-1.1 2.5-1.9 4.9-3 7.2-.2.4-1.2.6-1.8.6h-32.9c-.5 0-1 0-1.5-.1-1.8-.2-2.5-1-2.5-2.8V96.4c0-2.9.9-4 3.9-4 4.6-.1 9.2 0 13.8 0h24.1c-.7 1.7-1.3 3.2-1.9 4.7-1.5 3.6-.8 3.1-4.6 3.1h-25.2v12.1h23.4c-.1.5-.2.9-.3 1.2-.6 1.6-1.4 3.2-1.9 4.9-.4 1.2-1.1 1.7-2.4 1.6-4.3-.1-8.6 0-12.8 0-1.1 0-2.2.2-3.3.4-1.6.4-2.6 1.5-2.6 3.1-.2 3.1-.2 6.1-.2 9.4zM47.3 92.4c0 .3.1.6.1.8 0 10 0 20.1-.1 30.1 0 2.8-.7 5.5-1.9 8.1-1.9 4.2-5.2 6.8-9.4 8.3-8 2.8-16.2 2.8-24.3.2-7.1-2.4-10.7-7.6-11.5-15-.1-1.5-.2-2.9-.2-4.3V94.3c0-1.8.1-2 2-2h8.3v1.4c0 9.3 0 18.6.1 27.9 0 .9.1 1.7.2 2.6.9 5.1 3.6 7.9 8.7 8.8 3.1.6 6.2.5 9.3-.1 4.8-1 7.5-3.8 8.2-8.6.2-1.3.3-2.7.3-4V94.1c0-1.7.2-1.9 1.8-1.9 2.8.2 5.6.2 8.4.2z"/></svg>