<svg id="Слой_2" xmlns="http://www.w3.org/2000/svg" viewBox="0 0 518.8 473.3"><style>.st3{fill:#fff}</style><path d="M66.5 165.6l-23.7-10.2c10.7-22.8 24.9-43.7 41.9-62l17.6 17.6c1.7 1.7 3.4 2.6 6 2.6s4.3-.9 6-2.6c3.4-3.4 3.4-8.5 0-11.9L96.7 81.5c19.1-17.8 41.1-32.6 65.2-43.4l9.5 23.5c.9 3.4 4.3 5.1 7.7 5.1.9 0 1.7 0 3.4-.9 4.3-1.7 6-6.8 4.3-11.1l-9.3-23c23-8.5 47.7-13.5 73.3-14.4v59.6c0 5.1 3.4 8.5 8.5 8.5s8.5-3.4 8.5-8.5V17.3c26.9 1 52.7 6.4 76.7 15.6l-10.1 23.4c-1.7 4.3 0 9.4 4.3 11.1.9.9 2.6.9 3.4.9 3.4 0 6.8-2.6 7.7-5.1L360 39.5c22.8 10.7 43.7 24.9 62 41.9L404.4 99c-3.4 3.4-3.4 8.5 0 11.9 1.7 1.7 3.4 2.6 6 2.6 1.7 0 4.3-.9 6-2.6L434 93.4c17.8 19.1 32.6 41.1 43.4 65.2l-23.5 9.5c-4.3 1.7-6 6.8-4.3 11.1.9 3.4 4.3 5.1 7.7 5.1.9 0 1.7-.9 3.4-.9l23-9.3c8.5 23 13.5 47.7 14.4 73.3h-59.6c-5.1 0-8.5 3.4-8.5 8.5s3.4 8.5 8.5 8.5h59.6c-.9 26.6-6.2 52.5-15.4 76.8L459 331c-4.3-1.7-9.4 0-11.1 4.3-1.7 4.3 0 9.4 4.3 11.1l24 10.4c-7.2 15.5-16.1 30.4-26.5 44.2H70c-11.5-14.9-21.1-30.8-28.7-47.6l23.6-9.6c4.3-1.7 6-6.8 4.3-11.1-1.7-4.3-6.8-6-11.1-4.3L34.9 338c-8.6-23.3-13.4-48-14.3-73.4h59.6c5.1 0 8.5-3.4 8.5-8.5s-3.4-8.5-8.5-8.5H20.6c1-26.9 6.4-52.7 15.6-76.7L59.7 181c.9.9 2.6.9 3.4.9 3.4 0 6-1.7 7.7-5.1 1.7-4.3 0-9.4-4.3-11.2z" fill="#dfdcdc"/><ellipse cx="258.1" cy="293.2" rx="252.1" ry="181.5" opacity=".5" fill="#fff"/><path d="M165.5 315.8c-18.8 0-34.1 15.4-34.1 34.1s15.4 34.1 34.1 34.1 34.1-15.4 34.1-34.1c.1-18.7-15.3-34.1-34.1-34.1zm0 51.2c-9.4 0-17.1-7.7-17.1-17.1s7.7-17.1 17.1-17.1c9.4 0 17.1 7.7 17.1 17.1s-7.7 17.1-17.1 17.1zm187.8-51.2c-18.8 0-34.1 15.4-34.1 34.1s15.4 34.1 34.1 34.1 34.1-15.4 34.1-34.1c0-18.7-15.4-34.1-34.1-34.1zm0 51.2c-9.4 0-17.1-7.7-17.1-17.1s7.7-17.1 17.1-17.1 17.1 7.7 17.1 17.1-7.7 17.1-17.1 17.1zm-85.4-234.4c-1.2-3.6-4.2-5.4-8.4-6.1-4.2-.6-7.3 2.4-8.5 6L239.4 179c-4.3 16.3-9.8 32.5-15.3 47.6-1.8 4.2-3.7 9.6-5.5 15.1-6.1 19.3 1 39.8 17.9 50.8 13.2 8.5 31.3 8.6 44.7.2 3-1.8 5.4-4.2 7.9-6.6 11.5-11.4 15.2-28.3 10.4-44-1.8-4.2-3.6-9.7-5.4-15.1-4.8-15.7-10.7-31.4-14.9-47.7l-11.3-46.7zm-5.6 50.1c4.2 17.5 9.5 33.8 15.5 49.5 2.4 4.8 3.6 9.7 5.4 15.1 4.2 11.5-.7 23.5-11 30.1-7.9 5.4-18.7 5.4-26.5-.1-10.2-6.7-15-18.8-10.7-30.2 1.2-4.8 3.7-9.6 5.5-15.1 5.5-16.3 11.6-33.1 15.9-49.4l3.1-12.7 2.8 12.8z"/><path d="M497.1 161.4c-.1-.6-.3-1.1-.5-1.7-.2-.6-.5-1.1-.8-1.5-12.8-30.6-31.4-58.3-54.3-81.6-.3-.5-.7-.9-1.1-1.4s-.9-.8-1.4-1.1C392.7 28.4 329.2.1 259.5.1c-33.4 0-65.4 6.5-94.7 18.3-.6.1-1.1.3-1.7.5-.6.2-1.1.5-1.5.8C131 32.5 103.3 51.1 80 74c-.5.3-.9.7-1.4 1.1s-.8.9-1.1 1.4c-45.7 46.3-74 109.8-74 179.5 0 58 18.8 113.5 55.5 158.7 1.7 2.6 4.3 3.4 6.8 3.4h387.4c2.6 0 5.1-.9 6.8-3.4 36.7-45.2 55.5-100.7 55.5-158.7-.1-33.3-6.6-65.3-18.4-94.6zm-47.4 239.8H70c-11.5-14.9-21.1-30.8-28.7-47.6l23.6-9.6c4.3-1.7 6-6.8 4.3-11.1-1.7-4.3-6.8-6-11.1-4.3L34.9 338c-8.6-23.3-13.4-48-14.3-73.4h59.6c5.1 0 8.5-3.4 8.5-8.5s-3.4-8.5-8.5-8.5H20.6c1-26.9 6.4-52.7 15.6-76.7L59.7 181c.9.9 2.6.9 3.4.9 3.4 0 6-1.7 7.7-5.1 1.7-4.3 0-9.4-4.3-11.1l-23.7-10.2c10.7-22.8 24.9-43.7 41.9-62l17.6 17.6c1.7 1.7 3.4 2.6 6 2.6s4.3-.9 6-2.6c3.4-3.4 3.4-8.5 0-11.9L96.7 81.5c19.1-17.8 41.1-32.6 65.2-43.4l9.5 23.5c.9 3.4 4.3 5.1 7.7 5.1.9 0 1.7 0 3.4-.9 4.3-1.7 6-6.8 4.3-11.1l-9.3-23c23-8.5 47.7-13.5 73.3-14.4v59.6c0 5.1 3.4 8.5 8.5 8.5s8.5-3.4 8.5-8.5V17.3c26.9 1 52.7 6.4 76.7 15.6l-10.1 23.4c-1.7 4.3 0 9.4 4.3 11.1.9.9 2.6.9 3.4.9 3.4 0 6.8-2.6 7.7-5.1L360 39.5c22.8 10.7 43.7 24.9 62 41.9L404.4 99c-3.4 3.4-3.4 8.5 0 11.9 1.7 1.7 3.4 2.6 6 2.6 1.7 0 4.3-.9 6-2.6L434 93.4c17.8 19.1 32.6 41.1 43.4 65.2l-23.5 9.5c-4.3 1.7-6 6.8-4.3 11.1.9 3.4 4.3 5.1 7.7 5.1.9 0 1.7-.9 3.4-.9l23-9.3c8.5 23 13.5 47.7 14.4 73.3h-59.6c-5.1 0-8.5 3.4-8.5 8.5s3.4 8.5 8.5 8.5h59.6c-.9 26.6-6.2 52.5-15.4 76.8L459 331c-4.3-1.7-9.4 0-11.1 4.3-1.7 4.3 0 9.4 4.3 11.1l24 10.4c-7.2 15.7-16 30.5-26.5 44.4z"/><path d="M277.8 232.2c-6-15.7-11.3-32-15.5-49.5l-3-12.7-3.1 12.7c-4.3 16.3-10.4 33.1-15.9 49.4-1.8 5.4-4.3 10.2-5.5 15.1-4.3 11.4.5 23.5 10.7 30.2 7.8 5.5 18.7 5.5 26.5.1 10.3-6.6 15.2-18.6 11-30.1-1.6-5.5-2.8-10.4-5.2-15.2z" fill="#ffcd01"/><circle class="st3" cx="353.3" cy="350" r="17.1"/><circle class="st3" cx="165.5" cy="350" r="17.1"/></svg>