<svg id="Слой_2" xmlns="http://www.w3.org/2000/svg" viewBox="0 0 518.8 473.3"><style>.st2{fill:#ffcd01}</style><path d="M66.2 165.1l-23.7-10.2c10.7-22.8 24.9-43.7 41.9-62l17.6 17.6c1.7 1.7 3.4 2.6 6 2.6s4.3-.9 6-2.6c3.4-3.4 3.4-8.5 0-11.9L96.4 80.9c19.1-17.8 41.1-32.6 65.2-43.4l9.5 23.5c.9 3.4 4.3 5.1 7.7 5.1.9 0 1.7 0 3.4-.9 4.3-1.7 6-6.8 4.3-11.1l-9.3-23c23-8.5 47.7-13.5 73.3-14.4v59.6c0 5.1 3.4 8.5 8.5 8.5s8.5-3.4 8.5-8.5V16.8c26.9 1 52.7 6.4 76.7 15.6l-10.1 23.4c-1.7 4.3 0 9.4 4.3 11.1.9.9 2.6.9 3.4.9 3.4 0 6.8-2.6 7.7-5.1L359.7 39c22.8 10.7 43.7 24.9 62 41.9l-17.6 17.6c-3.4 3.4-3.4 8.5 0 11.9 1.7 1.7 3.4 2.6 6 2.6 1.7 0 4.3-.9 6-2.6l17.6-17.6c17.8 19.1 32.6 41.1 43.4 65.2l-23.5 9.5c-4.3 1.7-6 6.8-4.3 11.1.9 3.4 4.3 5.1 7.7 5.1.9 0 1.7-.9 3.4-.9l23-9.3c8.5 23 13.5 47.7 14.4 73.3h-59.6c-5.1 0-8.5 3.4-8.5 8.5s3.4 8.5 8.5 8.5h59.6c-.9 26.6-6.2 52.5-15.4 76.8l-23.7-10.2c-4.3-1.7-9.4 0-11.1 4.3-1.7 4.3 0 9.4 4.3 11.1l24 10.4c-7.2 15.5-16.1 30.4-26.5 44.2H69.6C58 385.7 48.5 369.8 40.9 353l23.6-9.6c4.3-1.7 6-6.8 4.3-11.1-1.7-4.3-6.8-6-11.1-4.3l-23.1 9.4c-8.6-23.3-13.4-48-14.3-73.4h59.6c5.1 0 8.5-3.4 8.5-8.5S85 247 79.9 247H20.3c1-26.9 6.4-52.7 15.6-76.7l23.4 10.1c.9.9 2.6.9 3.4.9 3.4 0 6-1.7 7.7-5.1 1.7-4.3 0-9.4-4.2-11.1z" fill="#dfdcdc"/><ellipse cx="258.8" cy="298.3" rx="255.8" ry="181.5" opacity=".5" fill="#fff"/><path class="st2" d="M234.3 261.5c-2.6-11.9 2.6-23.9 13.7-29 4.3-2.6 9.4-4.3 14.5-6.8 15.4-7.7 31.6-15.4 46.1-23.9l11.1-6.8-6.8 11.1c-9.4 15.4-17.1 30.7-23.9 46.1-1.7 5.1-4.3 9.4-6.8 14.5-5.1 11.1-17.1 16.2-29 13.7-9.5-1.8-17.2-9.5-18.9-18.9z"/><path d="M165.2 315.4c-18.8 0-34.1 15.4-34.1 34.1s15.4 34.1 34.1 34.1 34.1-15.4 34.1-34.1c0-18.8-15.4-34.1-34.1-34.1zm0 51.2c-9.4 0-17.1-7.7-17.1-17.1s7.7-17.1 17.1-17.1c9.4 0 17.1 7.7 17.1 17.1s-7.8 17.1-17.1 17.1zm187.7-51.2c-18.8 0-34.1 15.4-34.1 34.1s15.4 34.1 34.1 34.1 34.1-15.4 34.1-34.1c0-18.8-15.3-34.1-34.1-34.1zm0 51.2c-9.4 0-17.1-7.7-17.1-17.1s7.7-17.1 17.1-17.1 17.1 7.7 17.1 17.1-7.7 17.1-17.1 17.1zm-.9-192c1.7-3.4.9-6.8-1.7-10.2-2.6-3.4-6.8-3.4-10.2-1.7l-41 24.7c-14.5 8.5-29.9 16.2-44.4 23-4.3 1.7-9.4 4.3-14.5 6.8-17.9 9.4-27.3 29-23 48.6 3.4 15.4 16.2 28.2 31.6 31.6 3.4.9 6.8.9 10.2.9 16.2 0 30.7-9.4 38.4-23.9 1.7-4.3 4.3-9.4 6.8-14.5 7.7-14.5 14.5-29.9 23-44.4l24.8-40.9zm-39.2 31.5c-9.4 15.4-17.1 30.7-23.9 46.1-1.7 5.1-4.3 9.4-6.8 14.5-5.1 11.1-17.1 16.2-29 13.7-9.4-1.7-17.1-9.4-18.8-18.8-2.6-11.9 2.6-23.9 13.7-29 4.3-2.6 9.4-4.3 14.5-6.8 15.4-7.7 31.6-15.4 46.1-23.9l11.1-6.8-6.9 11z"/><path d="M496.7 160.9c-.1-.6-.3-1.1-.5-1.7-.2-.6-.5-1.1-.8-1.5-12.8-30.7-31.4-58.3-54.3-81.6-.3-.5-.7-.9-1.1-1.4s-.9-.8-1.4-1.1c-46.3-45.7-109.8-74-179.5-74-33.4 0-65.4 6.5-94.7 18.3-.6.1-1.1.3-1.7.5-.6.2-1.1.5-1.5.8-30.8 12.8-58.4 31.4-81.7 54.4-.5.3-.9.7-1.4 1.1s-.8.9-1.1 1.4C31.3 122.4 3 185.9 3 255.6c0 58 18.8 113.5 55.5 158.7 1.7 2.6 4.3 3.4 6.8 3.4h387.4c2.6 0 5.1-.9 6.8-3.4 36.7-45.2 55.5-100.7 55.5-158.7 0-33.4-6.5-65.4-18.3-94.7zm-47.4 239.8H69.6c-11.5-14.9-21.1-30.8-28.7-47.6l23.6-9.6c4.3-1.7 6-6.8 4.3-11.1-1.7-4.3-6.8-6-11.1-4.3l-23.1 9.4c-8.6-23.3-13.4-48-14.3-73.4h59.6c5.1 0 8.5-3.4 8.5-8.5s-3.4-8.5-8.5-8.5H20.3c1-26.9 6.4-52.7 15.6-76.7l23.4 10.1c.9.9 2.6.9 3.4.9 3.4 0 6-1.7 7.7-5.1 1.7-4.3 0-9.4-4.3-11.1L42.4 155c10.7-22.8 24.9-43.7 41.9-62l17.6 17.6c1.7 1.7 3.4 2.6 6 2.6s4.3-.9 6-2.6c3.4-3.4 3.4-8.5 0-11.9L96.4 81c19.1-17.8 41.1-32.6 65.2-43.4l9.5 23.5c.9 3.4 4.3 5.1 7.7 5.1.9 0 1.7 0 3.4-.9 4.3-1.7 6-6.8 4.3-11.1l-9.3-23c23-8.5 47.7-13.5 73.3-14.4v59.6c0 5.1 3.4 8.5 8.5 8.5s8.5-3.4 8.5-8.5V16.9c26.9 1 52.7 6.4 76.7 15.6l-10.1 23.4c-1.7 4.3 0 9.4 4.3 11.1.9.9 2.6.9 3.4.9 3.4 0 6.8-2.6 7.7-5.1l10.2-23.7c22.8 10.7 43.7 24.9 62 41.9l-17.6 17.6c-3.4 3.4-3.4 8.5 0 11.9 1.7 1.7 3.4 2.6 6 2.6 1.7 0 4.3-.9 6-2.6L433.6 93c17.8 19.1 32.6 41.1 43.4 65.2l-23.5 9.5c-4.3 1.7-6 6.8-4.3 11.1.9 3.4 4.3 5.1 7.7 5.1.9 0 1.7-.9 3.4-.9l23-9.3c8.5 23 13.5 47.7 14.4 73.3h-59.6c-5.1 0-8.5 3.4-8.5 8.5s3.4 8.5 8.5 8.5h59.6c-.9 26.6-6.2 52.5-15.4 76.8l-23.7-10.2c-4.3-1.7-9.4 0-11.1 4.3-1.7 4.3 0 9.4 4.3 11.1l24 10.4c-7.1 15.6-16 30.4-26.5 44.3z"/><circle class="st2" cx="165.2" cy="349.5" r="17.1"/><circle class="st2" cx="352.9" cy="349.5" r="17.1"/></svg>