<svg id="Слой_2" xmlns="http://www.w3.org/2000/svg" viewBox="0 0 518.8 473.3"><style>.st0{fill:#dfdcdc}</style><path class="st0" d="M452.9 168.8l23.7-10.2c-10.7-22.8-24.9-43.7-41.9-62L417 114.2c-1.7 1.7-3.4 2.6-6 2.6s-4.3-.9-6-2.6c-3.4-3.4-3.4-8.5 0-11.9l17.6-17.6c-19.1-17.8-41.1-32.6-65.2-43.4l-9.5 23.5c-.9 3.4-4.3 5.1-7.7 5.1-.9 0-1.7 0-3.4-.9-4.3-1.7-6-6.8-4.3-11.1l9.3-23c-23-8.5-47.7-13.5-73.3-14.4v59.6c0 5.1-3.4 8.5-8.5 8.5s-8.5-3.4-8.5-8.5V20.5c-26.9 1-52.7 6.4-76.7 15.6l10.1 23.4c1.7 4.3 0 9.4-4.3 11.1-.9.9-2.6.9-3.4.9-3.4 0-6.8-2.6-7.7-5.1l-10.2-23.7c-22.8 10.7-43.7 24.9-62 41.9l17.6 17.6c3.4 3.4 3.4 8.5 0 11.9-1.7 1.7-3.4 2.6-6 2.6-1.7 0-4.3-.9-6-2.6L85.4 96.6c-17.8 19.1-32.6 41.1-43.4 65.2l23.5 9.5c4.3 1.7 6 6.8 4.3 11.1-.9 3.4-4.3 5.1-7.7 5.1-.9 0-1.7-.9-3.4-.9l-23-9.3c-8.5 23-13.5 47.7-14.4 73.3h59.6c5.1 0 8.5 3.4 8.5 8.5s-3.4 8.5-8.5 8.5H21.2c.9 26.6 6.2 52.5 15.4 76.8l23.7-10.2c4.3-1.7 9.4 0 11.1 4.3 1.7 4.3 0 9.4-4.3 11.1l-24 10.4c7.2 15.5 16.1 30.4 26.5 44.2h379.7c11.5-14.9 21.1-30.8 28.7-47.6l-23.6-9.6c-4.3-1.7-6-6.8-4.3-11.1 1.7-4.3 6.8-6 11.1-4.3l23.1 9.4c8.6-23.3 13.4-48 14.3-73.4H439c-5.1 0-8.5-3.4-8.5-8.5s3.4-8.5 8.5-8.5h59.6c-1-26.9-6.4-52.7-15.6-76.7L459.6 184c-.9.9-2.6.9-3.4.9-3.4 0-6-1.7-7.7-5.1-1.6-4.2.1-9.3 4.4-11z"/><ellipse cx="259.8" cy="292.3" rx="255.8" ry="181.5" opacity=".5" fill="#fff"/><path d="M319.7 353.1c0 18.8 15.4 34.1 34.1 34.1 18.8 0 34.1-15.4 34.1-34.1s-15.3-34.1-34-34.1c-18.8 0-34.2 15.4-34.2 34.1zm17.1 0c0-9.4 7.7-17.1 17.1-17.1s17.1 7.7 17.1 17.1-7.7 17.1-17.1 17.1c-9.4 0-17.1-7.7-17.1-17.1zm-204.8 0c0 18.8 15.4 34.1 34.1 34.1s34.1-15.4 34.1-34.1-15.3-34.1-34.1-34.1-34.1 15.4-34.1 34.1zm17.1 0c0-9.4 7.7-17.1 17.1-17.1s17.1 7.7 17.1 17.1-7.7 17.1-17.1 17.1c-9.5 0-17.1-7.7-17.1-17.1z"/><path d="M4 259.3c0 58 18.8 113.5 55.5 158.7 1.7 2.6 4.3 3.4 6.8 3.4h387.4c2.6 0 5.1-.9 6.8-3.4 36.7-45.2 55.5-100.7 55.5-158.7 0-69.8-28.3-133.2-74-179.5-.3-.5-.7-.9-1.1-1.4-.4-.4-.9-.8-1.4-1.1-23.3-23-50.9-41.6-81.6-54.3-.5-.3-1-.6-1.5-.8-.6-.2-1.1-.4-1.7-.5C325.4 9.8 293.4 3.3 260 3.3c-69.8 0-133.2 28.3-179.5 74-.5.3-.9.7-1.4 1.1s-.8.9-1.1 1.4c-23 23.3-41.6 50.9-54.3 81.6-.3.5-.6 1-.8 1.5-.2.6-.4 1.1-.5 1.7C10.5 193.9 4 225.9 4 259.3zm39.2 100.8l24-10.4c4.3-1.7 6-6.8 4.3-11.1-1.7-4.3-6.8-6-11.1-4.3l-23.7 10.2c-9.2-24.3-14.5-50.2-15.4-76.8h59.6c5.1 0 8.5-3.4 8.5-8.5s-3.4-8.5-8.5-8.5H21.2c.9-25.6 5.9-50.3 14.4-73.3l23 9.3c1.7 0 2.6.9 3.4.9 3.4 0 6.8-1.7 7.7-5.1 1.7-4.3 0-9.4-4.3-11.1L42 161.9c10.9-24.1 25.6-46.1 43.4-65.2l17.6 17.6c1.7 1.7 4.3 2.6 6 2.6 2.6 0 4.3-.9 6-2.6 3.4-3.4 3.4-8.5 0-11.9L97.3 84.7c18.2-17 39.1-31.2 62-41.9l10.2 23.7c.9 2.6 4.3 5.1 7.7 5.1.9 0 2.6 0 3.4-.9 4.3-1.7 6-6.8 4.3-11.1l-10.1-23.4c24-9.2 49.8-14.7 76.7-15.6v59.6c0 5.1 3.4 8.5 8.5 8.5s8.5-3.4 8.5-8.5V20.5c25.6.9 50.3 5.9 73.3 14.4l-9.3 23c-1.7 4.3 0 9.4 4.3 11.1 1.7.9 2.6.9 3.4.9 3.4 0 6.8-1.7 7.7-5.1l9.5-23.5c24.1 10.9 46.1 25.6 65.2 43.4L405 102.3c-3.4 3.4-3.4 8.5 0 11.9 1.7 1.7 3.4 2.6 6 2.6s4.3-.9 6-2.6l17.6-17.6c17 18.2 31.2 39.1 41.9 62l-23.7 10.2c-4.3 1.7-6 6.8-4.3 11.1 1.7 3.4 4.3 5.1 7.7 5.1.9 0 2.6 0 3.4-.9L483 174c9.2 24 14.7 49.8 15.6 76.7H439c-5.1 0-8.5 3.4-8.5 8.5s3.4 8.5 8.5 8.5h59.6c-.9 25.3-5.7 50-14.3 73.4l-23.1-9.4c-4.3-1.7-9.4 0-11.1 4.3-1.7 4.3 0 9.4 4.3 11.1l23.6 9.6c-7.6 16.8-17.2 32.7-28.7 47.6H69.7c-10.5-13.8-19.3-28.7-26.5-44.2z"/><path d="M191.7 219.2c8.5 14.5 15.4 29.9 23 44.4 2.6 5.1 5.1 10.2 6.8 14.5 7.7 14.5 22.2 23.9 38.4 23.9 3.4 0 6.8 0 10.2-.9 15.4-3.4 28.2-16.2 31.6-31.6 4.3-19.6-5.1-39.3-23-48.6-5.1-2.6-10.2-5.1-14.5-6.8-14.5-6.8-29.9-14.5-44.4-23l-41-24.7c-3.4-1.7-7.7-1.7-10.2 1.7-2.6 3.4-3.4 6.8-1.7 10.2l24.8 40.9zm7.7-20.5l11.1 6.8c14.5 8.5 30.7 16.2 46.1 23.9 5.1 2.6 10.2 4.3 14.5 6.8 11.1 5.1 16.2 17.1 13.7 29-1.7 9.4-9.4 17.1-18.8 18.8-11.9 2.6-23.9-2.6-29-13.7-2.6-5.1-5.1-9.4-6.8-14.5-6.8-15.4-14.5-30.7-23.9-46.1l-6.9-11z"/><path d="M284.7 265.2c2.6-11.9-2.6-23.9-13.7-29-4.3-2.6-9.4-4.3-14.5-6.8-15.4-7.7-31.6-15.4-46.1-23.9l-11.1-6.8 6.8 11.1c9.4 15.4 17.1 30.7 23.9 46.1 1.7 5.1 4.3 9.4 6.8 14.5 5.1 11.1 17.1 16.2 29 13.7 9.6-1.8 17.2-9.5 18.9-18.9z" fill="#ffcd01"/><circle class="st0" cx="166.1" cy="353.1" r="17.1"/><circle class="st0" cx="353.9" cy="353.1" r="17.1"/></svg>