<svg xmlns="http://www.w3.org/2000/svg" viewBox="0 0 240 240"><circle cx="120" cy="120" r="120" fill="#dfdcdc"/><path fill="#fff" d="M73.7 52h92.7v117.4H73.7z"/><path d="M73.7 175.1h92.7v31.4H73.7zm0-141.6h92.7v12.4H73.7z" fill="#ffcd01"/><path d="M158.9 27.3H81.1c-7.5 0-13.6 6.1-13.6 13.6V199c0 7.5 6.1 13.6 13.6 13.6h77.8c7.5 0 13.6-6.1 13.6-13.6V40.9c0-7.5-6.1-13.6-13.6-13.6zM73.7 52h92.7v117.4H73.7V52zm7.4-18.5h77.8c4.1 0 7.4 3.3 7.4 7.4v4.9H73.7v-4.9c0-4.1 3.3-7.4 7.4-7.4zm77.8 173H81.1c-4.1 0-7.4-3.3-7.4-7.4v-23.5h92.7v23.5c-.1 4.1-3.4 7.4-7.5 7.4z"/><path d="M107.6 42.8H120c1.7 0 3.1-1.4 3.1-3.1s-1.4-3.1-3.1-3.1h-12.4c-1.7 0-3.1 1.4-3.1 3.1s1.4 3.1 3.1 3.1zm21.7 0h3.1c1.7 0 3.1-1.4 3.1-3.1s-1.4-3.1-3.1-3.1h-3.1c-1.7 0-3.1 1.4-3.1 3.1s1.4 3.1 3.1 3.1z"/><circle cx="120" cy="191" r="7.6"/><path d="M150.1 112.2c-1.7-1.7-4.6-1.7-6.3 0l-19.4 19.4V79.1c0-2.5-2-4.4-4.4-4.4s-4.4 2-4.4 4.4v52.5l-19.4-19.4c-1.7-1.7-4.6-1.7-6.3 0-1.7 1.7-1.7 4.6 0 6.3l27 27c.2.2.4.4.7.6.1.1.2.1.3.2.1.1.3.2.4.2.1.1.3.1.5.1.1 0 .2.1.4.1.3.1.6.1.9.1.3 0 .6 0 .8-.1.1 0 .3-.1.4-.1.1 0 .3-.1.4-.1.1-.1.3-.1.4-.2.1-.1.2-.1.3-.2.2-.2.5-.3.7-.6l27-27c1.8-1.7 1.8-4.6 0-6.3z"/></svg>