<svg id="Слой_2" xmlns="http://www.w3.org/2000/svg" xmlns:xlink="http://www.w3.org/1999/xlink" viewBox="0 0 240 240"><style>.st1{fill:#ffcd01}</style><circle cx="120" cy="120" r="120" fill="#dfdcdc"/><path class="st1" d="M97.3 165h42v13.1h-42z"/><defs><circle id="SVGID_1_" cx="120" cy="120" r="120"/></defs><clipPath id="SVGID_2_"><use xlink:href="#SVGID_1_" overflow="visible"/></clipPath><g clip-path="url(#SVGID_2_)"><path class="st1" d="M90.5 230.6h58.2v20.1H90.5z"/><path d="M168.1 71.6c-2.5-2.5-5.8-3.8-9.3-3.8-1.8 0-3.5.4-5.1 1V30.3c0-6.9-5.6-12.5-12.5-12.5-1.6 0-3.1.3-4.5.8-.5-6.4-5.9-11.5-12.4-11.5-6.9 0-12.5 5.6-12.5 12.5v1.5c-1.4-.5-2.9-.8-4.4-.8-6.8.1-12.4 5.7-12.4 12.6v5.5c-1.4-.5-2.9-.8-4.4-.8-3.3 0-6.5 1.3-8.8 3.6-2.4 2.3-3.7 5.5-3.7 8.8v57.6c0 8.6 2 17.3 5.8 25v.1c3.9 7.8 5.9 16.3 5.9 24.8v20.6h-7.7c-2.2 0-4 1.8-4 4v46.5c0 2.2 1.8 4 4 4h2.4v14.2c0 2.2 1.8 4 4 4s4-1.8 4-4v-14.2h52.2v14.2c0 2.2 1.8 4 4 4s4-1.8 4-4v-14.2h2.4c2.2 0 4-1.8 4-4v-46.5c0-2.2-1.8-4-4-4h-7.7v-22c0-6.6 3.4-12.8 9.1-16.6.1 0 .1-.1.2-.1 9.6-6.5 15.4-17.4 15.4-29V80.9c-.2-3.6-1.5-6.8-4-9.3zM151 186.1v38.4H86.1v-38.4H151zm-50.7-9.8c0-6.2 5-11.2 11.2-11.2 6.2 0 11.2 5 11.2 11.2 0 .6-.1 1.2-.2 1.8h-22.1c-.1-.6-.1-1.2-.1-1.8zm29.2-6.8h9.8v8.5h-8.7c.1-.6.1-1.2.1-1.8 0-2.3-.4-4.6-1.2-6.7zm34.4-59.1c0 8.9-4.4 17.3-11.8 22.3l-.1.1c-7.9 5.2-12.7 14-12.7 23.3v5.5h-15.5c-3.3-2.8-7.6-4.5-12.3-4.5-5.3 0-10.1 2.2-13.6 5.6v-5.3c0-9.6-2.3-19.4-6.7-28.3 0-.1-.1-.2-.1-.3-3.2-6.6-4.9-14-4.9-21.4V50c0-1.2.5-2.3 1.3-3.1.8-.8 1.9-1.3 3.1-1.3 2.5 0 4.4 2 4.4 4.4v37c0 2.2 1.8 4 4 4s4-1.8 4-4V32.9c0-2.5 2-4.4 4.4-4.4 2.5 0 4.4 2 4.4 4.4v50.6c0 2.2 1.8 4 4 4s4-1.8 4-4V19.7c0-2.5 2-4.4 4.4-4.4 2.5 0 4.4 2 4.4 4.4v66.5c0 2.2 1.8 4 4 4s4-1.8 4-4V30.3c0-2.5 2-4.4 4.4-4.4 2.5 0 4.4 2 4.4 4.4v74c0 2.2 1.8 4 4 4s4-1.8 4-4V80.9c0-2.8 2.3-5.1 5.1-5.1 1.4 0 2.6.5 3.6 1.5s1.5 2.2 1.5 3.6l.3 29.5z"/><path d="M86.1 186.1H151v38.4H86.1zm65.9-53.3l.1-.1c7.4-5 11.8-13.4 11.8-22.3V80.9c0-1.4-.5-2.6-1.5-3.6s-2.2-1.5-3.6-1.5c-2.8 0-5.1 2.3-5.1 5.1v23.4c0 2.2-1.8 4-4 4s-4-1.8-4-4v-74c0-2.5-2-4.4-4.4-4.4s-4.4 2-4.4 4.4v55.9c0 2.2-1.8 4-4 4s-4-1.8-4-4V19.7c0-2.5-2-4.4-4.4-4.4s-4.4 2-4.4 4.4v63.7c0 2.2-1.8 4-4 4s-4-1.8-4-4V32.9c0-2.5-2-4.4-4.4-4.4-2.5 0-4.4 2-4.4 4.4V87c0 2.2-1.8 4-4 4s-4-1.8-4-4V50c0-2.5-2-4.4-4.4-4.4-1.2 0-2.3.5-3.1 1.3-.8.8-1.3 2-1.3 3.1v57.6c0 7.4 1.7 14.8 4.9 21.4.1.1.1.2.1.3 4.4 8.8 6.7 18.6 6.7 28.3v4.5h.8c3.4-3 7.9-4.9 12.7-4.9 4.7 0 9 1.7 12.3 4.5h15.5v-5.5c-.2-9.5 4.5-18.2 12.5-23.4z" fill="#fff"/></g></svg>