<svg xmlns="http://www.w3.org/2000/svg" width="141" height="30"><g fill-rule="evenodd"><path d="M9.95 2.364H8.465a4.46 4.46 0 0 0-1.628.309 3.73 3.73 0 0 0-1.411.981c-.41.45-.742 1.043-.995 1.782-.253.74-.38 1.656-.38 2.746 0 1.043.114 1.915.344 2.619.229.703.543 1.272.94 1.709.399.436.869.745 1.411.927a5.366 5.366 0 0 0 1.719.273h1.483V2.364zM7.633 16.037L3.22 26.001H0l4.848-10.655c-1.134-.582-2.05-1.437-2.75-2.563-.7-1.128-1.049-2.66-1.049-4.601 0-1.357.199-2.551.597-3.582.398-1.03.94-1.884 1.628-2.563A6.696 6.696 0 0 1 5.68.509 8.267 8.267 0 0 1 8.574 0h4.161v26H9.95v-9.963H7.634z" fill="red"/><path d="M73.118 26.256c-1.954 0-3.486-.783-4.595-2.346-1.11-1.564-1.664-3.92-1.664-7.073 0-1.43.139-2.727.416-3.891.277-1.163.687-2.151 1.23-2.964a5.815 5.815 0 0 1 2.026-1.89c.808-.449 1.742-.673 2.804-.673.82 0 1.483.09 1.99.272.506.182.965.407 1.375.673l-.398 2.69a6.13 6.13 0 0 0-1.357-.89 3.683 3.683 0 0 0-1.646-.382c-1.013 0-1.845.57-2.496 1.71-.651 1.139-.977 2.872-.977 5.2 0 2.303.271 4.079.814 5.327.542 1.249 1.393 1.873 2.55 1.873.7 0 1.303-.115 1.81-.346.506-.23.927-.49 1.266-.781l.651 2.108a6.196 6.196 0 0 1-1.628 1c-.603.255-1.327.383-2.17.383zM58.61 16.873v9.128h-2.822V7.673h2.822v8.473l4.378-8.473h2.858l-4.522 8.618 5.173 9.71h-3.075l-4.812-9.128zM47.865 9.746c-.868 0-1.483.49-1.845 1.473-.362.982-.591 2.297-.688 3.945H50c0-.775-.036-1.497-.108-2.164a8.735 8.735 0 0 0-.343-1.727c-.158-.485-.375-.86-.652-1.127a1.431 1.431 0 0 0-1.031-.4zm5.065 15.018a6.874 6.874 0 0 1-1.99 1.092c-.748.266-1.58.4-2.496.4-1.881 0-3.365-.733-4.45-2.2-1.086-1.467-1.628-3.619-1.628-6.455 0-1.479.102-2.837.307-4.073.205-1.236.53-2.31.977-3.219.446-.909 1.019-1.618 1.718-2.127.7-.509 1.532-.763 2.497-.763.747 0 1.435.151 2.062.454.627.303 1.158.794 1.592 1.473.434.678.772 1.558 1.013 2.636.241 1.08.362 2.395.362 3.946v1.564h-7.598c0 2.085.283 3.66.85 4.727.567 1.067 1.417 1.6 2.55 1.6.797 0 1.503-.139 2.117-.419.616-.278 1.104-.55 1.466-.817l.651 2.181zm-16.498-14.8h-3.147v.327c0 .97-.018 2.031-.054 3.182a50.711 50.711 0 0 1-.236 3.51 41.893 41.893 0 0 1-.506 3.508 17.21 17.21 0 0 1-.905 3.182h4.848V9.964zm4.234 19.637h-2.533v-3.6h-7.815v3.6h-2.532v-5.928h1.121c.41-.969.735-2.041.977-3.218a37.93 37.93 0 0 0 .56-3.636c.133-1.249.218-2.521.254-3.819a133.7 133.7 0 0 0 .054-3.763V7.673h8.467v16h1.447v5.928zM26.158 7.673v18.328h-2.786v-8.218h-4.197V26h-2.822V7.673h2.822v7.782h4.197V7.673h2.786zm63.349-6.182v24.51h-1.809V1.491h-5.101V0h12.047v1.49zm8.719 23.492c.844 0 1.562-.352 2.153-1.055.59-.702 1.055-1.551 1.393-2.545v-5.055h-1.954c-1.52 0-2.641.364-3.365 1.091-.723.727-1.085 1.89-1.085 3.49 0 1.31.259 2.317.778 3.019.518.703 1.212 1.055 2.08 1.055zM102.278 26c-.072-.242-.15-.551-.235-.927-.085-.376-.15-.892-.2-1.546-.433.873-.976 1.564-1.627 2.073-.651.51-1.435.764-2.352.764-1.23 0-2.23-.467-3.003-1.4-.772-.934-1.157-2.236-1.157-3.91 0-1.964.518-3.448 1.556-4.454 1.037-1.006 2.544-1.51 4.522-1.51h1.99V12.8c0-1.406-.253-2.424-.76-3.055-.507-.63-1.266-.946-2.28-.946a4.64 4.64 0 0 0-2.17.527 4.53 4.53 0 0 0-1.664 1.473l-.47-1.636c.361-.485.91-.915 1.646-1.291.735-.376 1.621-.563 2.659-.563 1.52 0 2.683.43 3.491 1.29.808.861 1.212 2.2 1.212 4.019v10c0 .63.036 1.267.109 1.909.072.643.168 1.133.289 1.473h-1.556zm6.766 0h-1.701V7.674h1.7v8.619l6.115-8.619h1.664l-6.006 8.51 6.44 9.818h-1.881l-6.331-9.491zm15.014-1.126c.579 0 1.09-.097 1.538-.291a4.54 4.54 0 0 0 1.14-.691 4.05 4.05 0 0 0 .94-.982l.542 1.418a4.05 4.05 0 0 1-1.012 1.018c-.338.268-.778.504-1.32.71-.544.205-1.165.309-1.864.309-1.834 0-3.25-.83-4.251-2.492-1.001-1.66-1.502-3.993-1.502-7 0-3.03.494-5.382 1.484-7.054.988-1.674 2.424-2.51 4.305-2.51.94 0 1.737.164 2.388.49.651.328 1.181.735 1.592 1.22l-.47 1.818a6.545 6.545 0 0 0-1.484-1.455c-.579-.412-1.254-.618-2.026-.618-1.4 0-2.43.704-3.093 2.11-.664 1.405-.995 3.406-.995 6 0 2.52.325 4.485.977 5.89.65 1.407 1.688 2.11 3.11 2.11m15.268-11.637c0-.485.012-.927.036-1.327.024-.4.06-.795.109-1.183h-.109a9.27 9.27 0 0 1-.434 1.183c-.17.375-.35.77-.543 1.181l-5.933 12.91h-1.447V7.673h1.592v12.728a21.791 21.791 0 0 1-.145 2.582h.109c.12-.412.265-.818.433-1.219.17-.4.35-.805.543-1.218l5.934-12.873h1.483v18.328h-1.628V13.237z" fill="#fff"/></g></svg>