<svg xmlns="http://www.w3.org/2000/svg" viewBox="0 0 591.6 591.6"><path d="M418.2 0H173.4c-28.152 0-51 22.848-51 51v489.6c0 28.152 22.848 51 51 51h244.8c28.152 0 51-22.848 51-51V51c0-28.152-22.848-51-51-51zM173.4 20.4h244.8c16.932 0 30.6 13.668 30.6 30.6v402.9h-306V51c0-16.932 13.668-30.6 30.6-30.6zm244.8 550.8H173.4c-16.932 0-30.6-13.668-30.6-30.6v-76.5h306v76.5c0 16.932-13.668 30.6-30.6 30.6z"/><circle cx="295.8" cy="520.2" r="20.4"/><path d="M173.4 178.5c2.856 0 5.1-2.244 5.1-5.1V56.1H255c2.856 0 5.1-2.244 5.1-5.1s-2.244-5.1-5.1-5.1h-81.6c-2.856 0-5.1 2.244-5.1 5.1v122.4c0 2.856 2.244 5.1 5.1 5.1z"/></svg>