<svg id="Слой_2" xmlns="http://www.w3.org/2000/svg" viewBox="0 0 204 204"><style>.st0{fill:#ffcd01}</style><circle class="st0" cx="101.8" cy="146.9" r="44.9"/><path class="st0" d="M15.6 24.1h172.7v24.5H15.6z"/><path d="M194.4 12.1h-39.3V6.2c0-3.3-2.7-6-6-6s-6 2.7-6 6v5.9H108V6.2c0-3.3-2.7-6-6-6s-6 2.7-6 6v5.9H62.4V6.2c0-3.3-2.7-6-6-6s-6 2.7-6 6v5.9H9.6c-3.3 0-6 2.7-6 6v135.6c0 3.3 2.7 6 6 6h36.8c5.9 25.2 28.6 44.1 55.5 44.1s49.6-18.8 55.5-44.1h36.8c3.3 0 6-2.7 6-6V18.1c.2-3.3-2.5-6-5.8-6zm-144 12v5.4c0 3.3 2.7 6 6 6s6-2.7 6-6v-5.4H96v5.4c0 3.3 2.7 6 6 6s6-2.7 6-6v-5.4h35.1v5.4c0 3.3 2.7 6 6 6s6-2.7 6-6v-5.4h33.3v24.5H15.6V24.1h34.8zM102 191.8c-24.8 0-45.1-20.2-45.1-45.1s20.2-45.1 45.1-45.1 45.1 20.2 45.1 45.1-20.3 45.1-45.1 45.1zm57-44.1v-1c0-31.5-25.6-57.1-57.1-57.1s-57.1 25.6-57.1 57.1v1H15.6v-87h172.7v87H159z"/><path d="M108 148.2v-29c0-3.3-2.7-6-6-6s-6 2.7-6 6v31.5c0 1.6.6 3.1 1.8 4.2l13.8 13.8c1.2 1.2 2.7 1.8 4.2 1.8s3.1-.6 4.2-1.8c2.3-2.3 2.3-6.1 0-8.5l-12-12z"/></svg>