<svg id="Слой_2" xmlns="http://www.w3.org/2000/svg" viewBox="0 0 534.2 135"><style>.st0{fill:#060907}.st1{fill:#f9b625}</style><path class="st0" d="M166.8 49.6c.2-2.3-.1-4.4-2.4-5.8-1.7-1.1-3.1-2.7-3.8-4.7-.1-.3-.4-.4-.4-.4 0-.9-.1-1.6 0-2.2.3-1.3.7-2.7 1.2-3.9.1-.4.6-.6 1-.9.5-.5 1.1-1 1.8-1.7.8.2 2.1-.4 2.8-1.4.1-.1.4-.1.7-.2.9-.1 1.8-.3 2.9-.4 1.4 2.1 4.1 3.5 5 6.7.5 2 1.2 4 1.3 6.1 0 .4 0 1-.2 1.2-1 .9-.8 1.9-.4 2.9.6 1.9 1 2.1 2.5.7 1.3-1.3 2.8-2.4 4.5-3.2 2.1-1 3.2-3.1 4.1-5.1 2.3-5.1 4.3-10.2 6.5-15.3.6-1.5.5-2.8-.7-4.1-.6-.6-.8-1.6-1.3-2.4-.3-.5-.6-1-1-1.3-.4-.4-.9-.6-1.3-.9 1-.9 2.1-.9 3.2 0 2.1 1.7 3.4 1.3 4.1-1.3.3-1.1.5-2.3.9-3.4.1-.3.6-.6.9-.8.2.4.6.7.6 1.1 0 .9-.2 1.8-.3 2.8 0 .4.1.7.2 1.5 1.2-1.4 2.1-2.5 3-3.6.2-.3.4-.6.7-.8.3-.2.7-.3 1.1-.4 0 .4.1.9 0 1.2-.6 1-1.3 2-2 3-.2.3-.4.5-.5.8.1.1.1.2.2.3.9-.6 1.8-1.2 2.8-1.7.6-.3 1.3-.4 1.9-.6.3 1-.6 1.3-1.1 1.8-.9.7-1.8 1.4-2.6 2.4h4.4c0 .1.1.3.1.4-.2.2-.4.4-.7.5-.6.2-1.1.3-1.7.3-1.7.1-2.8 1-3.7 2.5-1.1 1.8-2.2 3.5-2.6 5.6-.4 2.2-.9 4.5-1.6 6.7-.9 3.1-2.1 6-2.9 9.1-.7 2.7-1 5.4-1.6 8.1-.4 1.8-1 3.5-1.5 5.2-.1.3-.1.7-.2 1.1H207c6.2 0 10.6 4.5 10.6 10.6v48.5c0 5.9-4.5 10.4-10.4 10.4h-48.5c-6.3 0-10.6-4.3-10.7-10.6V65.9c0-5.2 2.9-9.2 7.6-10.5.1 0 .3-.1.4-.1 2.4.1 4.4-1 6.4-2.2 1-.6 1.9-1.5 2.8-2.2.5-.4 1-.7 1.5-1.1-.1-.3 0-.2.1-.2zm26.8 72.3h13c5 0 8.4-3.5 8.4-8.5V65.6c0-4.7-2.9-8.3-7.2-8.4-5.7-.2-11.4-.1-17 0-.3 0-.8.4-.8.7-.4 3.5-1.1 7.1-.8 10.6.4 6.4 1.4 12.7 4 18.7.5 1.1.8 2.2 1.2 3.3.3.9.2 1.6-.9 2-.9.3-1.8.8-2.9 1.4 2.1 5.5 1.8 11.2 2.3 16.8.1 3.7.4 7.4.7 11.2zm-34.3-12c-1.1-.5-2.1-.9-3-1.3-1.9-.8-3.1-2.9-2.9-4.9.1-1.5.4-2.9.5-4.4.5-6.6-.3-13.3.7-19.9 0-.3-.1-.7-.2-.8-.9-.3-.6-.9-.5-1.5.4-2.4.9-4.7 1.3-7.1.4-2.6.7-5.2 1.1-7.7.3-1.7.9-3.3 1.4-5.1-.6.1-1 .1-1.4.2-3.6.9-6 3.9-6.1 7.6v48.6c0 3.5 1.6 6 4.7 7.5 2.2 1 2.5.9 2.9-1.4.5-3.2 1-6.5 1.5-9.8zM176 105c-4.2 5.7-7 12.5-6.3 16.8h10.9c-1.6-5.6-3.1-11.2-4.6-16.8zm-16.6 3.4c.4-1.9.7-3.6 1-5.4.7-4.4.9-8.9 2.2-13.1.1-.3 0-.6-.1-.9-.1-.6-.3-1.2-.3-1.8-.1-2.2 1.3-3.9 2.2-5.8.7-1.5.7-1.7-.9-2.6 0 .9.1 2-1.4 1.9-.1 0-.3.6-.3.9-.2 1.5-.2 3.1-.6 4.6-1 3.8-2.2 7.5-3.3 11.3-.1.4-.3.8-.1 1.1.7 1.8 1.4 3.5 2.1 5.2.1.3 0 .7-.1 1-.4-.1-.9 0-1.2-.2-.3-.2-.4-.6-.7-.9-.2-.3-.4-.5-.7-.8-2.1 3 .8 3.8 2.2 5.5zm-87.9 9.5c-1.9 1.4-3.7 3-5.8 4-5.2 2.6-10.7 3.3-16.2.9-4.8-2.1-7.3-6.2-7.1-11.4.2-5.2 3-8.9 8-10.8 4.2-1.6 8.6-1.8 13-2.4 1.5-.2 2.9-.4 4.4-.6 1.6-.3 2.6-1.3 2.9-2.9.3-1.7-.2-3.2-1.6-4.2-1.5-1.1-3.2-1.4-4.9-1.5-3.9-.2-7.1 1.1-9.8 4-1.3 1.4-2.7 2.5-4.7 2.4-3.4-.2-5.4-3-4.3-6.3.9-2.5 2.7-4.2 4.9-5.5 3.3-2 6.9-2.9 10.7-3.1 4.2-.3 8.3-.1 12.4 1.1 3.6 1.1 6.8 2.7 8.2 6.4.6 1.5.9 3.2.9 4.9.1 6.3 0 12.7.1 19 0 2 .3 3.9.8 5.9.9 3.7-1 6.4-4.8 6.4-4.3.1-6.5-1.8-7.1-6.3zm-.7-13.8c-2.2.5-4.3 1-6.5 1.5-2.4.5-4.9.9-7.2 1.7-2 .6-3 2.3-3 4.4 0 2.1 1.3 3.4 3.1 4.2 1.8.7 3.6.7 5.5.4 4.5-.7 7.9-4 8.1-8.1v-4.1z"/><path class="st0" d="M36.8 76.7v40.7c0 5.3-4.2 7.7-8.8 6.4-2.3-.6-3.6-2.2-4.1-4.5-.2-.8-.2-1.5-.2-2.3V76.6h-1.4c-3.9 0-7.9 0-11.8-.1-1.2 0-2.5-.5-3.5-1-1.9-1-2.6-2.7-2.5-4.8.1-1.9 1-3.4 2.7-4.2 1.2-.5 2.6-.9 3.9-.9 12.7-.1 25.4-.1 38.2 0 1.2 0 2.4.3 3.5.7 2.1.8 3.1 2.4 3.1 4.7 0 2.3-1 4-3.1 4.8-1.3.5-2.9.7-4.3.8-3.5.1-7 0-10.5 0-.4.1-.7.1-1.2.1zM104.3 94c2.2-3.6 4.3-7 6.4-10.4 1.1-1.7 2.4-3.1 4.6-3.2 2.3-.2 4.1.7 5.3 2.6 1.2 2 1 4.1-.2 6-1.5 2.4-3.1 4.7-4.7 7-1.3 2-2.6 3.9-4 5.9 3 4.5 6 8.9 9 13.4.8 1.1 1.1 2.4 1.1 3.7-.1 2.2-1.1 3.8-3.1 4.7-2 .9-4.1 1-5.9-.5-.9-.8-1.6-1.7-2.2-2.7-2.2-3.5-4.4-7-6.7-10.6l-.6.9c-2.3 3.7-4.6 7.4-7 11.1-1.3 2-3.6 2.9-6 2.3-2.4-.6-4.1-2.5-4.3-4.8-.2-1.5.5-2.7 1.3-3.8 2-2.9 4-5.9 5.9-8.8.9-1.4 1.8-2.7 2.8-4 .4-.6.4-1 0-1.6-2.7-3.9-5.3-7.9-7.9-11.8-1.9-2.8-1.3-5.9 1.5-7.8 2.8-1.9 6.2-1.3 8 1.5 2.1 3.3 4.2 6.8 6.2 10.1.1.1.3.4.5.8zm21.1 8.3V86.2c0-2.1.4-4.1 2.5-5.1 2.4-1.1 4.9-1.2 7.1.4.9.6 1.4 1.8 1.8 2.9.3.8.3 1.8.3 2.6v30.9c0 4.8-2.5 7-7.3 6.2-2.7-.4-4.2-2.1-4.4-4.8v-17zm-22.7-34.5h-3.4c-1.6 0-2.3-.7-2.3-2s.7-1.9 2.3-1.9h6.1c1.3 0 2 .6 2 1.9v8.6c0 1-.5 1.6-1.5 1.8-.9.1-1.7-.2-2-1.2-.2-.4-.3-.9-.4-1.3h-.2c-3.2 3.2-6.9 3.1-10.8 1.9-3.9-1.2-5.8-4.3-6.3-8.1-.3-2.1-.2-4.3.2-6.4.9-4.8 4.6-7.8 9.5-8.2 2.5-.2 5-.2 7.1 1.2 1.2.7 2.2 1.8 3 3 .8 1.2.4 2.5-.6 3.1-1.1.7-2.5.4-3.3-.7-1.6-2.4-3.8-2.8-6.3-2.3s-3.8 2.3-4.3 4.7c-.5 2.3-.5 4.6.3 6.8.9 2.3 2.7 3.5 5.2 3.7 2.2.1 4-.7 5.2-2.7.1-.6.2-1.2.5-1.9zm11.5.6c0 1.6.6 2.8 1.9 3.5 1.6.8 3.2.8 4.8-.1.5-.3.8-.7 1.3-1 .9-.7 1.9-.7 2.7-.1.8.7.9 1.8.1 2.7-.6.7-1.4 1.3-2.2 1.7-2.3 1-4.7 1.3-7.2.7-4.3-1-6.7-4.8-6-9.4.9-6.5 8.1-9.7 13.6-6 2.1 1.5 3.2 3.5 3.2 6.1 0 1.4-.4 1.9-1.9 1.9h-10.3zm.1-2.7h7.7c-.3-2.1-1.8-3.4-3.7-3.5-2.1 0-3.6 1.3-4 3.5zm14.7-3.2c-1.2-.1-2.4.1-2.5-1.5-.1-1.2.3-1.4 2.5-1.8v-2.5c.1-1.7.8-2.4 2.4-2.4 1.5 0 2.2.8 2.2 2.4v2.5c1.3.4 3.4-.5 3.4 1.6 0 2.2-2.1 1.2-3.4 1.7v9c0 .3.5.6.9.9.2.1.5 0 .8 0 .8 0 1.5.3 1.6 1.2.2.9-.2 1.5-.9 2-3.2 1.9-7.1-.3-7.1-3.9.1-3 .1-6.1.1-9.2z"/><path class="st1" d="M193.6 121.9c-.3-3.8-.6-7.5-.9-11.2-.5-5.6-.2-11.4-2.3-16.8 1.1-.5 1.9-1 2.9-1.4 1.1-.4 1.2-1.2.9-2-.3-1.1-.7-2.2-1.2-3.3-2.6-6-3.5-12.3-4-18.7-.2-3.5.5-7 .8-10.6 0-.3.5-.7.8-.7 5.7 0 11.4-.1 17 0 4.2.1 7.1 3.8 7.2 8.4v47.8c0 5-3.3 8.4-8.4 8.5h-12.8zm-34.3-12c-.5 3.3-1 6.6-1.6 9.8-.4 2.3-.7 2.5-2.9 1.4-3.2-1.5-4.7-4-4.7-7.5V65c0-3.7 2.5-6.7 6.1-7.6.4-.1.8-.1 1.4-.2-.5 1.8-1.1 3.5-1.4 5.1-.5 2.6-.7 5.1-1.1 7.7-.4 2.4-.8 4.7-1.3 7.1-.1.6-.4 1.2.5 1.5.1 0 .3.5.2.8-1 6.6-.2 13.3-.7 19.9-.1 1.5-.4 2.9-.5 4.4-.2 2.1 1 4.1 2.9 4.9 1.1.5 2 .9 3.1 1.3zM176 105c1.5 5.6 3 11.2 4.6 16.8h-10.9c-.8-4.3 2.1-11.1 6.3-16.8z"/><path class="st1" d="M159.4 108.4c-1.4-1.7-4.3-2.5-2.2-5.5.3.3.5.6.7.8.2.3.4.7.7.9.3.2.8.2 1.2.2 0-.3.2-.7.1-1-.7-1.8-1.4-3.5-2.1-5.2-.1-.3 0-.7.1-1.1 1.1-3.8 2.3-7.5 3.3-11.3.4-1.5.4-3.1.6-4.6 0-.3.2-.9.3-.9 1.5.1 1.3-1 1.4-1.9 1.6.9 1.7 1.1.9 2.6-.9 1.9-2.3 3.6-2.2 5.8 0 .6.2 1.2.3 1.8 0 .3.2.6.1.9-1.3 4.3-1.4 8.8-2.2 13.1-.3 1.8-.6 3.5-1 5.4z"/><path d="M70.8 104.1c0 1.2.1 2.7 0 4.2-.2 4.1-3.5 7.4-8.1 8.1-1.9.3-3.7.3-5.5-.4-1.9-.8-3.1-2.1-3.1-4.2s1-3.8 3-4.4c2.3-.8 4.8-1.1 7.2-1.7 2.1-.6 4.2-1.1 6.5-1.6zm43.5-38.4c.4-2.2 1.9-3.5 4-3.5 1.9 0 3.4 1.4 3.7 3.5h-7.7z" fill="#fdfdfd"/><path d="M398.9 100.4s0 .1 0 0c6 1.9 7.8 7.7 7.6 12.7-.3 7.3-4.3 11.4-11.9 12.4-1.5.2-3 .3-4.5.3h-25.5c-2.6-.1-3.4-.9-3.4-3.5V80.5c.1-1.6.8-2.5 2.4-2.8.7-.2 1.3-.2 2-.2 7.8 0 15.7-.1 23.5.1 2.7.1 5.4.7 8 1.4 4.1 1.1 6.2 4.1 6.9 8.2.6 3.9.2 7.7-2.5 10.9-.8.9-1.8 1.6-2.6 2.3zm-27.8 17.7c.2.1.3.1.3.1 6.4 0 12.8.1 19.1-.1 3.9-.1 5.6-2 5.7-5.9v-1.5c-.2-3.5-1.7-5.4-5.2-5.5-5.1-.2-10.3-.1-15.4-.1-.5 0-1.1.1-1.6.3-1.9.6-2.8 1.6-2.9 3.6v9.1zm0-20.4h16.1c.8 0 1.7-.1 2.5-.2 2.5-.4 3.9-1.8 4.2-4.3.1-1.2.1-2.4 0-3.5-.3-2.4-1.7-3.8-4-4.2-.9-.1-1.7-.2-2.6-.2h-15c-.4 0-.8 0-1.2.1v12.3zm148.2 8.8c1.6 2.7 3.1 5.3 4.6 7.9 2 3.3 3.9 6.7 5.9 10 .7 1.2.6 1.4-.8 1.4h-8c-1.1 0-1.7-.4-2.2-1.3-2.9-5.4-6-10.7-8.9-16.1-.4-.8-.9-1-1.8-1-2.8.1-5.6 0-8.4 0-.7 0-1.3.1-2 .2-2.4.5-3.5 1.7-3.5 4.2v14h-8.4c-1.1 0-1.6-.5-1.6-1.6V81.8c0-3.2 1-4.3 4.1-4.3h24.4c3.1 0 6.1.7 9 1.9 3.5 1.5 5.7 4.1 6.6 7.7.9 3.5.9 7.1 0 10.6-1 4.2-3.8 6.8-7.8 8.3-.3.2-.6.4-1.2.5zm-24.9-6.6c6.3 0 12.5.1 18.7-.1 4-.1 5.6-2 5.8-6v-2.5c-.2-3.7-1.9-5.7-5.7-5.8-6.2-.2-12.4-.1-18.5-.1-.1 0-.1.1-.3.1v14.4zm-59 18.2h31.7c-1.1 2.5-1.9 4.9-3 7.2-.2.4-1.2.6-1.8.6h-32.9c-.5 0-1 0-1.5-.1-1.8-.2-2.5-1-2.5-2.8V81.6c0-2.9.9-4 3.9-4 4.6-.1 9.2 0 13.8 0h24.1c-.7 1.7-1.3 3.2-1.9 4.7-1.5 3.6-.8 3.1-4.6 3.1h-25.2v12.1h23.4c-.1.5-.2.9-.3 1.2-.6 1.6-1.4 3.2-1.9 4.9-.4 1.2-1.1 1.7-2.4 1.6-4.3-.1-8.6 0-12.8 0-1.1 0-2.2.2-3.3.4-1.6.4-2.6 1.5-2.6 3.1-.3 3.1-.2 6.1-.2 9.4zm-93.8-40.5c0 .3.1.6.1.8 0 10 0 20.1-.1 30.1 0 2.8-.7 5.5-1.9 8.1-1.9 4.2-5.2 6.8-9.4 8.3-8 2.8-16.2 2.8-24.3.2-7.1-2.4-10.7-7.6-11.5-15-.1-1.4-.2-2.8-.3-4.1V79.7c0-1.8.1-2 2-2h8.3v1.4c0 9.3 0 18.6.1 27.9 0 .9.1 1.7.2 2.6.9 5.1 3.6 7.9 8.7 8.8 3.1.6 6.2.5 9.3-.1 4.8-1 7.5-3.8 8.2-8.6.2-1.3.3-2.7.3-4V79.5c0-1.7.2-1.9 1.8-1.9h8.5zM259.9 90h3.7v16.4h-3.7V95.5h-.1l-6.3 10.9h-3.7V90h3.7v10.9h.1l6.3-10.9z"/></svg>