<svg id="Слой_2" xmlns="http://www.w3.org/2000/svg" viewBox="0 0 413.9 413.9"><style>.st0{fill:#6a6a6a}</style><path class="st0" d="M209 108.8c-52.9 0-95.9 42.7-95.9 95.1 0 20.8 6.8 40.1 18.3 55.8l-12 35.3 36.8-11.7c15.1 9.9 33.3 15.7 52.7 15.7 52.8 0 95.9-42.7 95.9-95.1.1-52.4-42.9-95.1-95.8-95.1zm56 134.4c-2.3 6.5-13.7 12.7-18.9 13.2-5.1.5-5.1 4.2-33.5-6.9-28.4-11.1-46.3-40-47.7-41.9-1.4-1.8-11.4-15-11.4-28.7 0-13.6 7.2-20.4 9.8-23.1 2.6-2.8 5.6-3.5 7.5-3.5s3.7.2 5.4.2c1.6 0 4-.9 6.3 4.6 2.3 5.6 7.9 19.2 8.6 20.6.7 1.4 1.2 3 .2 4.9-.9 1.9-1.4 3-2.8 4.6-1.4 1.6-2.9 3.6-4.2 4.9-1.4 1.4-2.9 2.9-1.2 5.7 1.6 2.8 7.2 11.9 15.5 19.2 10.7 9.4 19.7 12.4 22.5 13.8 2.8 1.4 4.4 1.2 6.1-.7 1.6-1.9 7-8.1 8.9-10.9 1.9-2.8 3.7-2.3 6.3-1.4 2.6.9 16.3 7.6 19.1 9 2.8 1.4 4.7 2.1 5.4 3.2.4 1.1.4 6.7-1.9 13.2z"/><path class="st0" d="M206.9 0C92.6 0 0 92.6 0 206.9s92.6 206.9 206.9 206.9 206.9-92.6 206.9-206.9S321.2 0 206.9 0zm2.1 317.1c-20 0-38.8-5.1-55.1-14.1l-63.1 20 20.6-60.7c-10.4-17-16.4-37-16.4-58.4 0-62.5 51-113.1 114-113.1s114 50.6 114 113.1-51 113.2-114 113.2z"/></svg>