<svg xmlns="http://www.w3.org/2000/svg" viewBox="0 0 222.7 222.7"><path d="M9.7 178.5l8.6-4.2c2.2-1.1 4.9-.2 6 2 1.1 2.2.2 4.9-2 6l-12.6 6.2v18.1l48.6-24.5c.1 0 .1-.1.2-.1 1.1-.5 1.6-1.7 1.1-2.8L39.2 133l-1-2.3c-.3-.7-.9-1-1.2-1.1-.3-.1-.9-.3-1.6 0L9.7 140.8v37.7zM141.4 39.9h18.4v9.2h-18.4z" fill="#ffcd01"/><path d="M153.6 91.3h-5.7c-1.8 0-3.3-1.5-3.3-3.3v-3.3c0-1.8 1.5-3.3 3.3-3.3h6.3c1.5 0 2.6 1.2 2.6 2.6 0 2 1.7 3.7 3.7 3.7s3.7-1.7 3.7-3.7c0-5.5-4.4-9.9-9.8-10.1v-3.2c0-2-1.7-3.7-3.7-3.7s-3.7 1.7-3.7 3.7v3.2c-5.5.4-9.8 5-9.8 10.6v3.3c0 5.9 4.8 10.7 10.7 10.7h5.6c1.8 0 3.3 1.5 3.3 3.3v3.3c0 1.8-1.5 3.3-3.3 3.3h-6.3c-1.5 0-2.6-1.2-2.6-2.6 0-2-1.7-3.7-3.7-3.7s-3.7 1.7-3.7 3.7c0 5.5 4.4 9.9 9.8 10.1v3.2c0 2 1.7 3.7 3.7 3.7s3.7-1.7 3.7-3.7V116c5.5-.4 9.8-5 9.8-10.6V102c.1-5.9-4.7-10.7-10.6-10.7z"/><path d="M220.4 141c-1.8-4.2-5.2-7.4-9.4-9s-8.9-1.5-13.1.3h-.1l-28.2 13c-2.2 1-3.2 3.7-2.2 5.9s3.7 3.2 5.9 2.2l28.1-13c2-.9 4.2-.9 6.2-.1s3.6 2.3 4.5 4.3c.9 2 .9 4.2.1 6.2s-2.3 3.6-4.3 4.5l-57.7 25.5c-9.1 4-19.4 3.8-28.3-.6L101 169.6c-11.3-5.6-24.4-5.9-35.9-.8l-.3.1-15.6-35.4 21.8-9.6c10.4-4.6 22-5 32.7-1l42.4 15.6c3.8 1.4 5.8 5.6 4.5 9.5-1.3 3.9-5.6 6-9.5 4.7l-32.8-11.1c-2.3-.8-4.9.5-5.7 2.8s.5 4.9 2.8 5.7l32.8 11.1c1.7.6 3.5.9 5.2.9 6.8 0 13.2-4.3 15.6-11.1 2.9-8.4-1.6-17.7-9.9-20.7l-42.4-15.6c-2.9-1-5.8-1.8-8.7-2.4v-9.7c0-24.4 19.8-44.2 44.2-44.2h16.3c24.4 0 44.2 19.8 44.2 44.2V114c0 2.5 2 4.5 4.5 4.5s4.5-2 4.5-4.5v-11.7c0-25.8-18.5-47.4-42.9-52.2V36.7l11.3-19.3c.6-1.1.8-2.4.4-3.6-.4-1.2-1.3-2.2-2.4-2.7l-13.9-6.3c-1.1-.5-2.3-.5-3.4-.1l-10.3 3.7-9.1-3.6c-1-.4-2.2-.4-3.3 0l-14.5 5.6c-1.2.5-2.2 1.4-2.6 2.6-.4 1.2-.3 2.6.3 3.7l11.1 20.1v13.4C107.8 54.7 89 76.3 89 102.3v8.9c-7.4-.1-14.8 1.4-21.7 4.5l-21.9 9.7c-1.3-1.9-3-3.3-5.2-4.2-2.8-1.1-5.8-1-8.5.2L3.5 133.8c-1.6.7-2.7 2.3-2.7 4.1v76c0 1.6.8 3 2.1 3.8.7.4 1.5.7 2.3.7.7 0 1.4-.2 2-.5l55-27.8c2.7-1.2 4.7-3.4 5.7-6.1.9-2.2 1-4.6.4-6.9l.4-.2c9.1-4 19.4-3.8 28.3.6l21.1 10.5c11.3 5.6 24.4 5.9 35.9.8l57.7-25.5c4.2-1.8 7.4-5.2 9-9.4 1.7-4.1 1.6-8.8-.3-12.9zm-60.6-91.8h-18.4V40h18.4v9.2zm-28.1-32.5l8.1-3.1 9.1 3.6c1 .4 2.1.4 3.2.1l10.2-3.7 7.7 3.5-8.3 13.9h-22.1l-7.9-14.3zM58.5 182c-.1 0-.1.1-.2.1L9.7 206.6v-18.1l12.6-6.2c2.2-1.1 3.1-3.8 2-6s-3.8-3.1-6-2l-8.6 4.2v-37.7l25.6-11.2c.7-.3 1.3-.2 1.6 0 .3.1.9.4 1.2 1.1l1 2.3 20.4 46.1c.6 1.1.1 2.4-1 2.9z"/></svg>