<svg xmlns="http://www.w3.org/2000/svg" viewBox="0 0 413.9 413.9"><path d="M206.9 0C92.6 0 0 92.6 0 206.9s92.6 206.9 206.9 206.9 206.9-92.6 206.9-206.9S321.2 0 206.9 0zm113.6 148.6l.2 7.6c0 77.5-59 166.8-166.8 166.8-33.1 0-63.9-9.7-89.9-26.4 4.6.5 9.2.8 14 .8 27.5 0 52.8-9.3 72.8-25.1-25.7-.5-47.3-17.4-54.8-40.7 3.6.7 7.2 1.1 11 1.1 5.4 0 10.6-.7 15.5-2.1-26.8-5.4-47-29.1-47-57.5v-.7c7.9 4.4 17 7.1 26.6 7.4A58.488 58.488 0 0 1 76 131c0-10.7 2.9-20.8 7.9-29.5 29 35.5 72.2 58.9 120.9 61.3-1-4.3-1.5-8.8-1.5-13.4 0-32.4 26.3-58.6 58.7-58.6 16.9 0 32.1 7.1 42.8 18.5 13.4-2.7 25.9-7.5 37.3-14.2-4.4 13.6-13.7 25.2-25.8 32.4 11.9-1.4 23.2-4.6 33.7-9.2-8 11.7-17.9 22-29.5 30.3z" fill="#6a6a6a"/></svg>