<svg xmlns="http://www.w3.org/2000/svg" viewBox="0 0 240 240"><circle cx="120" cy="120" r="120" fill="#dfdcdc"/><path fill="#fff" d="M65.8 41.9l78.8-.4 8.2 21.9 21.4 7.7-.4 120.2H66.2z"/><path d="M182 67.2c0-1-.4-2-1.1-2.7l-29.6-29.6c-.7-.7-1.7-1.1-2.7-1.1H66.2c-4.5 0-8.1 3.7-8.1 8.1v149c0 4.5 3.7 8.1 8.1 8.1h107.7c4.5 0 8.1-3.7 8.1-8.1V67.2zm-29.6-20.3l16.4 16.4h-16c-.2 0-.4-.2-.4-.4v-16zm21.8 144c0 .2-.2.4-.4.4H66.2c-.2 0-.4-.2-.4-.4v-149c0-.2.2-.4.4-.4h78.4V63c0 4.5 3.7 8.1 8.1 8.1h21.5v119.8z"/><path d="M154.3 86.7H85.7c-2.1 0-3.9 1.7-3.9 3.9 0 2.1 1.7 3.9 3.9 3.9h68.5c2.1 0 3.9-1.7 3.9-3.9s-1.7-3.9-3.8-3.9zm-30 23.3H85.7c-2.1 0-3.9 1.7-3.9 3.9 0 2.1 1.7 3.9 3.9 3.9h38.5c2.1 0 3.9-1.7 3.9-3.9 0-2.1-1.7-3.9-3.8-3.9zM110 156.8H85.7c-2.1 0-3.9 1.7-3.9 3.9 0 2.1 1.7 3.9 3.9 3.9H110c2.1 0 3.9-1.7 3.9-3.9s-1.8-3.9-3.9-3.9zm0-23.4H85.7c-2.1 0-3.9 1.7-3.9 3.9 0 2.1 1.7 3.9 3.9 3.9H110c2.1 0 3.9-1.7 3.9-3.9s-1.8-3.9-3.9-3.9z"/><path d="M208.7 149.7c3.2 25.3-18.1 46.6-43.4 43.4-17.2-2.2-31.2-16.1-33.3-33.3-3.2-25.3 18.1-46.6 43.4-43.4 17.2 2.1 31.1 16 33.3 33.3z" fill="#ffcd01"/><path d="M181.4 140.7c-1.2-1.2-3-1.2-4.2 0-1.2 1.2-1.2 3 0 4.2l6.8 6.8h-34.5c-1.6 0-3 1.3-3 3s1.3 3 3 3H184l-6.8 6.8c-1.2 1.2-1.2 3 0 4.2.6.6 1.3.9 2.1.9s1.5-.3 2.1-.9l11.9-11.9c1.2-1.2 1.2-3 0-4.2l-11.9-11.9z"/><path d="M170.3 110c-24.6 0-44.7 20-44.7 44.7s20 44.7 44.7 44.7 44.7-20 44.7-44.7-20-44.7-44.7-44.7zm0 83.4c-21.3 0-38.7-17.4-38.7-38.7S149 116 170.3 116s38.7 17.4 38.7 38.7-17.3 38.7-38.7 38.7z"/></svg>